<mxfile host="app.diagrams.net" modified="2023-12-13T07:20:31.243Z" agent="Mozilla/5.0 (Windows NT 10.0; Win64; x64) AppleWebKit/537.36 (KHTML, like Gecko) Chrome/120.0.0.0 Safari/537.36" etag="nH0D2yKSh_Ko2y0QsXGX" version="22.1.8" type="github">
  <diagram name="페이지-1" id="JXkWpxUnw42sjQADm8eH">
    <mxGraphModel dx="1195" dy="632" grid="0" gridSize="10" guides="1" tooltips="1" connect="1" arrows="1" fold="1" page="1" pageScale="1" pageWidth="827" pageHeight="1169" math="0" shadow="0">
      <root>
        <mxCell id="0" />
        <mxCell id="1" parent="0" />
        <mxCell id="oH27cOXPESEcCW3jREpm-1" value="공간포털 서버&lt;br&gt;gis.jeju.go.kr" style="rounded=0;whiteSpace=wrap;html=1;" parent="1" vertex="1">
          <mxGeometry x="222" y="400" width="120" height="60" as="geometry" />
        </mxCell>
        <mxCell id="oH27cOXPESEcCW3jREpm-2" value="arcgis server" style="rounded=0;whiteSpace=wrap;html=1;" parent="1" vertex="1">
          <mxGeometry x="222" y="200" width="120" height="60" as="geometry" />
        </mxCell>
        <mxCell id="oH27cOXPESEcCW3jREpm-3" value="" style="endArrow=classic;html=1;rounded=0;entryX=0.5;entryY=1;entryDx=0;entryDy=0;startArrow=classic;startFill=1;" parent="1" edge="1" target="oH27cOXPESEcCW3jREpm-2">
          <mxGeometry width="50" height="50" relative="1" as="geometry">
            <mxPoint x="282" y="400" as="sourcePoint" />
            <mxPoint x="282" y="270" as="targetPoint" />
          </mxGeometry>
        </mxCell>
        <mxCell id="oH27cOXPESEcCW3jREpm-4" value="2. 토큰요청" style="text;html=1;strokeColor=none;fillColor=none;align=center;verticalAlign=middle;whiteSpace=wrap;rounded=0;" parent="1" vertex="1">
          <mxGeometry x="294" y="310" width="70" height="30" as="geometry" />
        </mxCell>
        <mxCell id="oH27cOXPESEcCW3jREpm-7" value="" style="endArrow=classic;html=1;rounded=0;entryX=1;entryY=0.5;entryDx=0;entryDy=0;startArrow=classic;startFill=1;" parent="1" target="oH27cOXPESEcCW3jREpm-1" edge="1">
          <mxGeometry width="50" height="50" relative="1" as="geometry">
            <mxPoint x="542" y="430" as="sourcePoint" />
            <mxPoint x="472" y="480" as="targetPoint" />
          </mxGeometry>
        </mxCell>
        <mxCell id="oH27cOXPESEcCW3jREpm-10" value="1. 토큰요청" style="text;html=1;strokeColor=none;fillColor=none;align=center;verticalAlign=middle;whiteSpace=wrap;rounded=0;" parent="1" vertex="1">
          <mxGeometry x="398" y="400" width="84" height="30" as="geometry" />
        </mxCell>
        <mxCell id="oH27cOXPESEcCW3jREpm-15" value="지하수 사이트 이용자" style="shape=umlActor;verticalLabelPosition=bottom;verticalAlign=top;html=1;outlineConnect=0;" parent="1" vertex="1">
          <mxGeometry x="562" y="385" width="30" height="60" as="geometry" />
        </mxCell>
        <mxCell id="oH27cOXPESEcCW3jREpm-38" value="사용자 브라우저 (크롬, 엣지 같은) 가&lt;br&gt;공간포털로 부터 토큰을 반환받는 부분.&lt;br&gt;&lt;br&gt;디버깅 모드로 토큰을 볼 수 있음" style="text;html=1;strokeColor=none;fillColor=none;align=center;verticalAlign=middle;whiteSpace=wrap;rounded=0;" parent="1" vertex="1">
          <mxGeometry x="143" y="1876" width="246" height="80" as="geometry" />
        </mxCell>
        <mxCell id="9ujqvaYszZN8otxZQyX4-3" style="edgeStyle=orthogonalEdgeStyle;rounded=0;orthogonalLoop=1;jettySize=auto;html=1;" edge="1" parent="1" source="9ujqvaYszZN8otxZQyX4-1" target="9ujqvaYszZN8otxZQyX4-2">
          <mxGeometry relative="1" as="geometry" />
        </mxCell>
        <mxCell id="9ujqvaYszZN8otxZQyX4-1" value="공간포털&lt;br&gt;gis.jeju.go.kr" style="rounded=0;whiteSpace=wrap;html=1;" vertex="1" parent="1">
          <mxGeometry x="175" y="2012" width="120" height="60" as="geometry" />
        </mxCell>
        <mxCell id="9ujqvaYszZN8otxZQyX4-4" style="edgeStyle=orthogonalEdgeStyle;rounded=0;orthogonalLoop=1;jettySize=auto;html=1;entryX=1;entryY=0.75;entryDx=0;entryDy=0;" edge="1" parent="1" source="9ujqvaYszZN8otxZQyX4-2" target="9ujqvaYszZN8otxZQyX4-1">
          <mxGeometry relative="1" as="geometry">
            <Array as="points">
              <mxPoint x="435" y="2057" />
              <mxPoint x="435" y="2057" />
            </Array>
          </mxGeometry>
        </mxCell>
        <mxCell id="9ujqvaYszZN8otxZQyX4-8" style="edgeStyle=orthogonalEdgeStyle;rounded=0;orthogonalLoop=1;jettySize=auto;html=1;" edge="1" parent="1" source="9ujqvaYszZN8otxZQyX4-2">
          <mxGeometry relative="1" as="geometry">
            <mxPoint x="645" y="2042" as="targetPoint" />
          </mxGeometry>
        </mxCell>
        <mxCell id="9ujqvaYszZN8otxZQyX4-2" value="그린도시 서버&lt;br&gt;greenwater.go.kr" style="rounded=0;whiteSpace=wrap;html=1;" vertex="1" parent="1">
          <mxGeometry x="405" y="2012" width="140" height="60" as="geometry" />
        </mxCell>
        <mxCell id="9ujqvaYszZN8otxZQyX4-6" value="토큰 교환" style="text;html=1;strokeColor=none;fillColor=none;align=center;verticalAlign=middle;whiteSpace=wrap;rounded=0;" vertex="1" parent="1">
          <mxGeometry x="316" y="2002" width="60" height="30" as="geometry" />
        </mxCell>
        <mxCell id="9ujqvaYszZN8otxZQyX4-9" style="edgeStyle=orthogonalEdgeStyle;rounded=0;orthogonalLoop=1;jettySize=auto;html=1;entryX=1;entryY=0.75;entryDx=0;entryDy=0;" edge="1" parent="1" source="9ujqvaYszZN8otxZQyX4-7" target="9ujqvaYszZN8otxZQyX4-2">
          <mxGeometry relative="1" as="geometry">
            <Array as="points">
              <mxPoint x="635" y="2057" />
              <mxPoint x="635" y="2057" />
            </Array>
          </mxGeometry>
        </mxCell>
        <mxCell id="9ujqvaYszZN8otxZQyX4-7" value="Actor" style="shape=umlActor;verticalLabelPosition=bottom;verticalAlign=top;html=1;outlineConnect=0;" vertex="1" parent="1">
          <mxGeometry x="655" y="2012" width="30" height="60" as="geometry" />
        </mxCell>
        <mxCell id="9ujqvaYszZN8otxZQyX4-10" value="" style="rounded=0;whiteSpace=wrap;html=1;dashed=1;fillColor=none;strokeWidth=2;" vertex="1" parent="1">
          <mxGeometry x="585" y="1992" width="40" height="100" as="geometry" />
        </mxCell>
        <mxCell id="9ujqvaYszZN8otxZQyX4-12" value="토큰은 여전히 디버깅 모드로 볼 수 있음" style="text;html=1;strokeColor=none;fillColor=none;align=center;verticalAlign=middle;whiteSpace=wrap;rounded=0;" vertex="1" parent="1">
          <mxGeometry x="512.5" y="1941" width="180" height="30" as="geometry" />
        </mxCell>
        <mxCell id="9ujqvaYszZN8otxZQyX4-18" style="edgeStyle=orthogonalEdgeStyle;rounded=0;orthogonalLoop=1;jettySize=auto;html=1;" edge="1" parent="1" source="9ujqvaYszZN8otxZQyX4-15">
          <mxGeometry relative="1" as="geometry">
            <mxPoint x="475" y="2252" as="targetPoint" />
          </mxGeometry>
        </mxCell>
        <mxCell id="9ujqvaYszZN8otxZQyX4-15" value="대민 공간포털&lt;br&gt;gis.jeju.go.kr" style="rounded=0;whiteSpace=wrap;html=1;" vertex="1" parent="1">
          <mxGeometry x="265" y="2222" width="120" height="60" as="geometry" />
        </mxCell>
        <mxCell id="9ujqvaYszZN8otxZQyX4-19" style="edgeStyle=orthogonalEdgeStyle;rounded=0;orthogonalLoop=1;jettySize=auto;html=1;" edge="1" parent="1" target="9ujqvaYszZN8otxZQyX4-15">
          <mxGeometry relative="1" as="geometry">
            <mxPoint x="465" y="2242" as="sourcePoint" />
            <Array as="points">
              <mxPoint x="445" y="2242" />
              <mxPoint x="445" y="2242" />
            </Array>
          </mxGeometry>
        </mxCell>
        <mxCell id="9ujqvaYszZN8otxZQyX4-16" value="Actor" style="shape=umlActor;verticalLabelPosition=bottom;verticalAlign=top;html=1;outlineConnect=0;" vertex="1" parent="1">
          <mxGeometry x="482.5" y="2222" width="30" height="60" as="geometry" />
        </mxCell>
        <mxCell id="9ujqvaYszZN8otxZQyX4-17" value="로그인이 없는 사이트에서의 토큰 탈취 행위는 막을 수 없음" style="text;html=1;strokeColor=none;fillColor=none;align=center;verticalAlign=middle;whiteSpace=wrap;rounded=0;" vertex="1" parent="1">
          <mxGeometry x="295" y="2172" width="240" height="30" as="geometry" />
        </mxCell>
        <mxCell id="9ujqvaYszZN8otxZQyX4-21" value="" style="rounded=0;whiteSpace=wrap;html=1;dashed=1;fillColor=none;strokeWidth=2;" vertex="1" parent="1">
          <mxGeometry x="415" y="2212" width="40" height="100" as="geometry" />
        </mxCell>
        <mxCell id="9ujqvaYszZN8otxZQyX4-22" value="대민의 경우 로그인이 없는 특성 상 토큰 탈취는 막을 수 없지만 API-KEY,&amp;nbsp;" style="text;html=1;strokeColor=none;fillColor=none;align=center;verticalAlign=middle;whiteSpace=wrap;rounded=0;" vertex="1" parent="1">
          <mxGeometry x="269" y="2382" width="306" height="30" as="geometry" />
        </mxCell>
        <mxCell id="9ujqvaYszZN8otxZQyX4-23" value="현재 보안 문제 사항&lt;br&gt;&lt;br&gt;&lt;div style=&quot;&quot;&gt;&lt;span style=&quot;background-color: initial;&quot;&gt;1. 허용한 url 인척 위장하여 토큰 요청&lt;/span&gt;&lt;/div&gt;&lt;div style=&quot;&quot;&gt;&lt;span style=&quot;background-color: initial;&quot;&gt;2. 토큰을 주고받는 과정에서 토큰 탈취하여 사용&lt;/span&gt;&lt;/div&gt;" style="text;html=1;strokeColor=none;fillColor=none;align=left;verticalAlign=middle;whiteSpace=wrap;rounded=0;" vertex="1" parent="1">
          <mxGeometry x="270" y="80" width="269" height="70" as="geometry" />
        </mxCell>
        <mxCell id="9ujqvaYszZN8otxZQyX4-26" value="3. 토큰응답" style="text;html=1;strokeColor=none;fillColor=none;align=center;verticalAlign=middle;whiteSpace=wrap;rounded=0;" vertex="1" parent="1">
          <mxGeometry x="202" y="310" width="70" height="30" as="geometry" />
        </mxCell>
        <mxCell id="9ujqvaYszZN8otxZQyX4-27" value="4. 토큰응답" style="text;html=1;strokeColor=none;fillColor=none;align=center;verticalAlign=middle;whiteSpace=wrap;rounded=0;" vertex="1" parent="1">
          <mxGeometry x="406" y="434" width="70" height="30" as="geometry" />
        </mxCell>
        <mxCell id="9ujqvaYszZN8otxZQyX4-28" value="지하수 사이트 이용자" style="shape=umlActor;verticalLabelPosition=bottom;verticalAlign=top;html=1;outlineConnect=0;" vertex="1" parent="1">
          <mxGeometry x="261" y="590" width="30" height="60" as="geometry" />
        </mxCell>
        <mxCell id="9ujqvaYszZN8otxZQyX4-29" value="arcgis server" style="rounded=0;whiteSpace=wrap;html=1;" vertex="1" parent="1">
          <mxGeometry x="447" y="594" width="120" height="60" as="geometry" />
        </mxCell>
        <mxCell id="9ujqvaYszZN8otxZQyX4-30" value="" style="endArrow=classic;html=1;rounded=0;entryX=1;entryY=0.5;entryDx=0;entryDy=0;startArrow=classic;startFill=1;" edge="1" parent="1">
          <mxGeometry width="50" height="50" relative="1" as="geometry">
            <mxPoint x="440" y="620" as="sourcePoint" />
            <mxPoint x="310" y="619.58" as="targetPoint" />
          </mxGeometry>
        </mxCell>
        <mxCell id="9ujqvaYszZN8otxZQyX4-31" value="토큰을 등록한 이후에는 공간포털과 상관없이 아크서비스 이용" style="text;html=1;strokeColor=none;fillColor=none;align=center;verticalAlign=middle;whiteSpace=wrap;rounded=0;" vertex="1" parent="1">
          <mxGeometry x="321" y="540" width="200" height="30" as="geometry" />
        </mxCell>
        <mxCell id="9ujqvaYszZN8otxZQyX4-32" value="공간포털 서버&lt;br&gt;gis.jeju.go.kr" style="rounded=0;whiteSpace=wrap;html=1;" vertex="1" parent="1">
          <mxGeometry x="211" y="914" width="120" height="60" as="geometry" />
        </mxCell>
        <mxCell id="9ujqvaYszZN8otxZQyX4-33" value="arcgis server" style="rounded=0;whiteSpace=wrap;html=1;" vertex="1" parent="1">
          <mxGeometry x="211" y="714" width="120" height="60" as="geometry" />
        </mxCell>
        <mxCell id="9ujqvaYszZN8otxZQyX4-34" value="" style="endArrow=classic;html=1;rounded=0;entryX=0.5;entryY=1;entryDx=0;entryDy=0;startArrow=classic;startFill=1;" edge="1" parent="1" target="9ujqvaYszZN8otxZQyX4-33">
          <mxGeometry width="50" height="50" relative="1" as="geometry">
            <mxPoint x="271" y="914" as="sourcePoint" />
            <mxPoint x="271" y="784" as="targetPoint" />
          </mxGeometry>
        </mxCell>
        <mxCell id="9ujqvaYszZN8otxZQyX4-35" value="2. 토큰요청" style="text;html=1;strokeColor=none;fillColor=none;align=center;verticalAlign=middle;whiteSpace=wrap;rounded=0;" vertex="1" parent="1">
          <mxGeometry x="283" y="824" width="70" height="30" as="geometry" />
        </mxCell>
        <mxCell id="9ujqvaYszZN8otxZQyX4-36" value="" style="endArrow=classic;html=1;rounded=0;entryX=1;entryY=0.5;entryDx=0;entryDy=0;startArrow=classic;startFill=1;" edge="1" parent="1" target="9ujqvaYszZN8otxZQyX4-32">
          <mxGeometry width="50" height="50" relative="1" as="geometry">
            <mxPoint x="531" y="944" as="sourcePoint" />
            <mxPoint x="461" y="994" as="targetPoint" />
          </mxGeometry>
        </mxCell>
        <mxCell id="9ujqvaYszZN8otxZQyX4-37" value="1. 토큰요청" style="text;html=1;strokeColor=none;fillColor=none;align=center;verticalAlign=middle;whiteSpace=wrap;rounded=0;" vertex="1" parent="1">
          <mxGeometry x="387" y="914" width="84" height="30" as="geometry" />
        </mxCell>
        <mxCell id="9ujqvaYszZN8otxZQyX4-38" value="타 사이트 이용자" style="shape=umlActor;verticalLabelPosition=bottom;verticalAlign=top;html=1;outlineConnect=0;" vertex="1" parent="1">
          <mxGeometry x="551" y="899" width="30" height="60" as="geometry" />
        </mxCell>
        <mxCell id="9ujqvaYszZN8otxZQyX4-39" value="3. 토큰응답" style="text;html=1;strokeColor=none;fillColor=none;align=center;verticalAlign=middle;whiteSpace=wrap;rounded=0;" vertex="1" parent="1">
          <mxGeometry x="191" y="824" width="70" height="30" as="geometry" />
        </mxCell>
        <mxCell id="9ujqvaYszZN8otxZQyX4-40" value="4. 토큰응답" style="text;html=1;strokeColor=none;fillColor=none;align=center;verticalAlign=middle;whiteSpace=wrap;rounded=0;" vertex="1" parent="1">
          <mxGeometry x="395" y="948" width="70" height="30" as="geometry" />
        </mxCell>
        <mxCell id="9ujqvaYszZN8otxZQyX4-41" value="요청 헤더 url을&lt;br&gt;https://jwater.jeju.go.kr &lt;br&gt;(지하수사이트 url)&lt;br&gt;로 조작" style="ellipse;shape=cloud;whiteSpace=wrap;html=1;" vertex="1" parent="1">
          <mxGeometry x="346" y="805" width="216" height="109" as="geometry" />
        </mxCell>
        <mxCell id="9ujqvaYszZN8otxZQyX4-44" style="edgeStyle=orthogonalEdgeStyle;rounded=0;orthogonalLoop=1;jettySize=auto;html=1;startArrow=classic;startFill=1;entryX=0;entryY=0.5;entryDx=0;entryDy=0;" edge="1" parent="1" source="9ujqvaYszZN8otxZQyX4-42" target="9ujqvaYszZN8otxZQyX4-43">
          <mxGeometry relative="1" as="geometry">
            <mxPoint x="381" y="1304" as="targetPoint" />
          </mxGeometry>
        </mxCell>
        <mxCell id="9ujqvaYszZN8otxZQyX4-42" value="공간포털 서버&lt;br&gt;gis.jeju.go.kr" style="rounded=0;whiteSpace=wrap;html=1;" vertex="1" parent="1">
          <mxGeometry x="171" y="1274" width="120" height="60" as="geometry" />
        </mxCell>
        <mxCell id="9ujqvaYszZN8otxZQyX4-53" style="edgeStyle=orthogonalEdgeStyle;rounded=0;orthogonalLoop=1;jettySize=auto;html=1;startArrow=classic;startFill=1;" edge="1" parent="1" source="9ujqvaYszZN8otxZQyX4-43" target="9ujqvaYszZN8otxZQyX4-45">
          <mxGeometry relative="1" as="geometry" />
        </mxCell>
        <mxCell id="9ujqvaYszZN8otxZQyX4-43" value="지하수 서버&lt;br&gt;jwater.jeju.go.kr" style="rounded=0;whiteSpace=wrap;html=1;" vertex="1" parent="1">
          <mxGeometry x="385" y="1274" width="120" height="60" as="geometry" />
        </mxCell>
        <mxCell id="9ujqvaYszZN8otxZQyX4-45" value="타 사이트 이용자" style="shape=umlActor;verticalLabelPosition=bottom;verticalAlign=top;html=1;outlineConnect=0;" vertex="1" parent="1">
          <mxGeometry x="628" y="1274" width="30" height="60" as="geometry" />
        </mxCell>
        <mxCell id="9ujqvaYszZN8otxZQyX4-48" value="허용된 url 인지 확인" style="rounded=0;whiteSpace=wrap;html=1;dashed=1;" vertex="1" parent="1">
          <mxGeometry x="298" y="355" width="139" height="37" as="geometry" />
        </mxCell>
        <mxCell id="9ujqvaYszZN8otxZQyX4-49" value="API-KEY 와&lt;br&gt;허용된 IP인지 확인" style="rounded=1;whiteSpace=wrap;html=1;dashed=1;" vertex="1" parent="1">
          <mxGeometry x="265" y="1206" width="138" height="52" as="geometry" />
        </mxCell>
        <mxCell id="9ujqvaYszZN8otxZQyX4-50" value="" style="rounded=0;whiteSpace=wrap;html=1;fillColor=none;dashed=1;" vertex="1" parent="1">
          <mxGeometry x="535" y="1220" width="49" height="157" as="geometry" />
        </mxCell>
        <mxCell id="9ujqvaYszZN8otxZQyX4-54" value="토큰 탈취 가능" style="text;html=1;strokeColor=none;fillColor=none;align=center;verticalAlign=middle;whiteSpace=wrap;rounded=0;" vertex="1" parent="1">
          <mxGeometry x="511.75" y="1388" width="95.5" height="30" as="geometry" />
        </mxCell>
        <mxCell id="9ujqvaYszZN8otxZQyX4-56" value="jjuisWeb&lt;br&gt;외부망 아크 서비스" style="rounded=0;whiteSpace=wrap;html=1;" vertex="1" parent="1">
          <mxGeometry x="250" y="2512" width="120" height="60" as="geometry" />
        </mxCell>
        <mxCell id="9ujqvaYszZN8otxZQyX4-57" value="jjuis&lt;br&gt;내부망 아크 서비스" style="rounded=0;whiteSpace=wrap;html=1;" vertex="1" parent="1">
          <mxGeometry x="426" y="2512" width="132" height="60" as="geometry" />
        </mxCell>
        <mxCell id="9ujqvaYszZN8otxZQyX4-58" value="userA" style="text;html=1;strokeColor=none;fillColor=none;align=center;verticalAlign=middle;whiteSpace=wrap;rounded=0;" vertex="1" parent="1">
          <mxGeometry x="280" y="2478" width="60" height="30" as="geometry" />
        </mxCell>
        <mxCell id="9ujqvaYszZN8otxZQyX4-59" value="userB" style="text;html=1;strokeColor=none;fillColor=none;align=center;verticalAlign=middle;whiteSpace=wrap;rounded=0;" vertex="1" parent="1">
          <mxGeometry x="467.5" y="2478" width="60" height="30" as="geometry" />
        </mxCell>
      </root>
    </mxGraphModel>
  </diagram>
</mxfile>
